<svg class="svg-icon" style="width: 1em; height: 1em;vertical-align: middle;fill: currentColor;overflow: hidden;" viewBox="0 0 1024 1024" version="1.1" xmlns="http://www.w3.org/2000/svg"><path d="M906.898978 736.871537l-65.815985 0c0 54.524824-44.201711 98.724489-98.725512 98.724489s-98.724489-44.199665-98.724489-98.724489L468.121654 736.871537c-24.232914 0-43.877323-19.644409-43.877323-43.877323L424.24433 232.279251c0-24.232914 19.645432-43.8763 43.877323-43.8763L906.898978 188.402951c24.232914 0 43.877323 19.644409 43.877323 43.8763l0 460.714963C950.776302 717.228151 931.130869 736.871537 906.898978 736.871537zM742.356458 682.026418c-30.290887 0-54.847166 24.555256-54.847166 54.846142 0 30.29191 24.556279 54.848189 54.847166 54.848189 30.29191 0 54.847166-24.556279 54.847166-54.848189C797.203624 706.58065 772.648368 682.026418 742.356458 682.026418zM369.280508 734.551702c0.01842 0.778736 0.116657 1.537006 0.116657 2.319835 0 54.524824-44.199665 98.724489-98.723465 98.724489-54.524824 0-98.724489-44.199665-98.724489-98.724489l-51.713802 0c-25.963325 0-47.01171-20.735253-47.01171-46.314839L73.223698 458.981483l94.024443-138.945539 188.045817 0c25.964348 0 47.01171 20.736277 47.01171 46.314839l0 324.205916C402.305669 711.304232 388.365168 728.656435 369.280508 734.551702zM270.673699 791.719726c30.290887 0 54.847166-24.556279 54.847166-54.848189 0-30.290887-24.556279-54.846142-54.847166-54.846142-30.29191 0-54.847166 24.555256-54.847166 54.846142C215.826534 767.163447 240.381789 791.719726 270.673699 791.719726zM358.427322 363.912243 193.886849 363.912243 117.101022 473.606575l241.326301 0L358.427322 363.912243z"  /></svg>